<svg id="visual" viewBox="0 0 900 600" width="900" height="600" xmlns="http://www.w3.org/2000/svg" xmlns:xlink="http://www.w3.org/1999/xlink" version="1.1"><path d="M0 32L4.8 28.5C9.7 25 19.3 18 29 21C38.7 24 48.3 37 58 38.5C67.7 40 77.3 30 87 23.2C96.7 16.3 106.3 12.7 116 10.7C125.7 8.7 135.3 8.3 145 11.3C154.7 14.3 164.3 20.7 174 21.5C183.7 22.3 193.3 17.7 203 20.5C212.7 23.3 222.3 33.7 232 41.2C241.7 48.7 251.3 53.3 261 50.2C270.7 47 280.3 36 290 35.8C299.7 35.7 309.3 46.3 319 47.5C328.7 48.7 338.3 40.3 348 36.7C357.7 33 367.3 34 377 35C386.7 36 396.3 37 406 32.3C415.7 27.7 425.3 17.3 435.2 17.3C445 17.3 455 27.7 464.8 31.8C474.7 36 484.3 34 494 36.5C503.7 39 513.3 46 523 46C532.7 46 542.3 39 552 37.5C561.7 36 571.3 40 581 41.5C590.7 43 600.3 42 610 40.7C619.7 39.3 629.3 37.7 639 39.5C648.7 41.3 658.3 46.7 668 43.2C677.7 39.7 687.3 27.3 697 24.8C706.7 22.3 716.3 29.7 726 31.2C735.7 32.7 745.3 28.3 755 23.3C764.7 18.3 774.3 12.7 784 15C793.7 17.3 803.3 27.7 813 28.5C822.7 29.3 832.3 20.7 842 24C851.7 27.3 861.3 42.7 871 45.8C880.7 49 890.3 40 895.2 35.5L900 31L900 0L895.2 0C890.3 0 880.7 0 871 0C861.3 0 851.7 0 842 0C832.3 0 822.7 0 813 0C803.3 0 793.7 0 784 0C774.3 0 764.7 0 755 0C745.3 0 735.7 0 726 0C716.3 0 706.7 0 697 0C687.3 0 677.7 0 668 0C658.3 0 648.7 0 639 0C629.3 0 619.7 0 610 0C600.3 0 590.7 0 581 0C571.3 0 561.7 0 552 0C542.3 0 532.7 0 523 0C513.3 0 503.7 0 494 0C484.3 0 474.7 0 464.8 0C455 0 445 0 435.2 0C425.3 0 415.7 0 406 0C396.3 0 386.7 0 377 0C367.3 0 357.7 0 348 0C338.3 0 328.7 0 319 0C309.3 0 299.7 0 290 0C280.3 0 270.7 0 261 0C251.3 0 241.7 0 232 0C222.3 0 212.7 0 203 0C193.3 0 183.7 0 174 0C164.3 0 154.7 0 145 0C135.3 0 125.7 0 116 0C106.3 0 96.7 0 87 0C77.3 0 67.7 0 58 0C48.3 0 38.7 0 29 0C19.3 0 9.7 0 4.8 0L0 0Z" fill="#FF0066" stroke-linecap="round" stroke-linejoin="miter"></path></svg>