<svg id="visual" viewBox="0 0 900 600" width="900" height="600" xmlns="http://www.w3.org/2000/svg" xmlns:xlink="http://www.w3.org/1999/xlink" version="1.1"><path d="M0 507L6 510.3C12 513.7 24 520.3 36 524.5C48 528.7 60 530.3 72 526.2C84 522 96 512 108 507.3C120 502.7 132 503.3 144 502.3C156 501.3 168 498.7 180 503C192 507.3 204 518.7 216 518.5C228 518.3 240 506.7 252 506.7C264 506.7 276 518.3 288 523C300 527.7 312 525.3 324 524.3C336 523.3 348 523.7 360 525.7C372 527.7 384 531.3 396 529.8C408 528.3 420 521.7 432 520.7C444 519.7 456 524.3 468 521.3C480 518.3 492 507.7 504 505.2C516 502.7 528 508.3 540 514.3C552 520.3 564 526.7 576 521.5C588 516.3 600 499.7 612 492.3C624 485 636 487 648 488.8C660 490.7 672 492.3 684 495.3C696 498.3 708 502.7 720 502.3C732 502 744 497 756 500.5C768 504 780 516 792 518.8C804 521.7 816 515.3 828 515C840 514.7 852 520.3 864 521.8C876 523.3 888 520.7 894 519.3L900 518L900 601L894 601C888 601 876 601 864 601C852 601 840 601 828 601C816 601 804 601 792 601C780 601 768 601 756 601C744 601 732 601 720 601C708 601 696 601 684 601C672 601 660 601 648 601C636 601 624 601 612 601C600 601 588 601 576 601C564 601 552 601 540 601C528 601 516 601 504 601C492 601 480 601 468 601C456 601 444 601 432 601C420 601 408 601 396 601C384 601 372 601 360 601C348 601 336 601 324 601C312 601 300 601 288 601C276 601 264 601 252 601C240 601 228 601 216 601C204 601 192 601 180 601C168 601 156 601 144 601C132 601 120 601 108 601C96 601 84 601 72 601C60 601 48 601 36 601C24 601 12 601 6 601L0 601Z" fill="#FF0066" stroke-linecap="round" stroke-linejoin="miter"></path></svg>